<svg width="256" height="256" viewBox="0 0 256 256" fill="none" xmlns="http://www.w3.org/2000/svg">
<circle cx="128" cy="128" r="128" fill="#00B2FF"/>
<path d="M102.12 211.235L92.6776 197.246L100.372 189.902C101.421 188.153 101.421 186.404 100.372 185.355C99.3224 184.306 97.5738 184.306 96.1749 185.355L86.7322 194.798V187.454C86.7322 185.705 85.3333 184.656 83.9344 184.656C81.8361 184.656 80.7869 185.705 80.7869 187.454V213.333C80.7869 214.732 81.8361 216.131 83.9344 216.131C85.3333 216.131 86.7322 214.732 86.7322 213.333V203.191L88.1311 201.093L97.224 214.732C97.9235 216.131 99.6721 216.481 101.071 215.781C102.12 215.082 102.82 214.033 102.82 212.984C102.82 212.634 102.82 211.585 102.12 211.235ZM128.699 184.656C128 184.656 127.301 185.005 126.601 185.705L112.962 203.891V187.454C112.962 185.705 111.213 184.656 109.814 184.656C108.066 184.656 106.317 185.705 106.317 187.454V213.333C106.317 214.732 108.066 216.131 109.814 216.131C110.514 216.131 111.563 215.781 111.913 215.082L125.902 196.546V213.333C125.902 214.732 127.301 216.131 128.699 216.131C130.448 216.131 131.497 214.732 131.497 213.333V187.454C131.497 185.705 130.448 184.656 128.699 184.656ZM140.94 184.656C138.842 184.656 137.792 185.705 137.792 187.454V213.333C137.792 214.732 138.842 216.131 140.94 216.131C143.038 216.131 144.087 214.732 144.087 213.333V187.454C144.087 185.705 143.038 184.656 140.94 184.656ZM136.743 178.361C138.492 178.361 140.24 179.76 140.24 181.508C140.24 183.607 138.492 185.005 136.743 185.005C134.995 185.005 133.596 183.607 133.596 181.508C133.596 179.76 134.995 178.361 136.743 178.361ZM145.137 178.361C146.885 178.361 148.284 179.76 148.284 181.508C148.284 183.607 146.885 185.005 145.137 185.005C143.388 185.005 141.989 183.607 141.989 181.508C141.989 179.76 143.388 178.361 145.137 178.361ZM168.568 209.137C167.869 209.836 167.169 210.186 165.77 210.186H157.027V202.492H164.022C169.268 202.492 169.268 205.29 169.268 206.689C169.268 207.738 168.918 208.437 168.568 209.137ZM157.027 196.197V190.601H163.672C167.869 190.601 167.869 193.049 167.869 194.098C167.869 194.448 167.869 196.197 164.372 196.197H157.027ZM172.765 198.995C173.814 197.596 174.514 195.847 174.514 194.098C174.514 189.202 171.366 184.656 163.672 184.656H153.53C152.131 184.656 150.383 185.705 150.383 187.454V213.333C150.383 214.732 152.131 216.131 153.53 216.131H165.77C169.268 216.131 172.066 214.732 173.464 213.333C174.863 211.235 175.563 209.137 175.563 206.689C175.563 202.842 174.164 200.044 172.765 198.995ZM110.514 29.377L111.563 54.5574C111.913 56.6557 113.311 58.0546 115.06 58.0546C116.809 58.0546 117.858 56.306 117.858 54.2076L116.459 31.8251L129.049 31.1257L130.098 53.5082C130.098 55.2568 131.497 56.6557 133.596 56.6557C134.995 56.6557 136.393 54.9071 136.393 53.5082L134.995 27.9781C134.995 26.2295 133.596 24.8306 131.497 24.8306L113.311 25.8798C111.563 25.8798 110.514 27.2787 110.514 28.6776V29.377ZM78.6885 46.1639C79.388 43.3661 81.1366 41.6175 83.5847 40.2186C84.6339 39.8689 85.6831 39.5191 86.7322 39.5191C88.1311 39.5191 89.1803 39.8689 90.929 40.5683C93.377 41.9672 95.4754 43.7158 96.5246 46.5137C96.8743 47.9126 97.224 49.3115 97.224 50.7104C97.224 51.7596 97.224 52.8087 96.8743 53.8579C96.1749 56.6557 94.4262 58.7541 91.9781 59.8033C90.929 60.153 89.1803 60.153 88.1311 60.153C86.7322 60.153 85.6831 60.153 84.6339 59.4536C81.8361 58.4044 79.7377 56.306 78.6885 53.5082C78.3388 52.1093 77.9891 50.7104 77.9891 49.3115C77.9891 48.2623 78.3388 47.2131 78.6885 46.1639ZM81.8361 64.6995C84.2842 66.0984 86.0328 66.4481 88.1311 66.4481C90.5792 66.4481 92.3279 66.0984 94.4262 65.0492C98.2732 63.3005 101.071 60.153 102.12 56.306C103.169 54.2076 103.519 52.459 103.519 50.7104C103.519 48.612 102.82 46.5137 101.77 44.0656C100.022 39.8689 97.224 36.7213 93.377 34.9727C91.2787 33.9235 88.8306 33.5738 86.7322 33.5738C81.1366 33.5738 75.8907 37.071 73.4426 42.6667C72.7432 43.0164 72.7432 43.3661 72.3934 43.7158C71.694 45.4645 71.694 47.5628 71.694 49.3115C71.694 51.7596 72.0437 53.8579 72.7432 56.306C75.1913 60.153 77.9891 63.3005 81.8361 64.6995ZM207.388 78.6885L191.65 87.7814C190.951 88.4809 189.902 89.5301 189.902 90.929C189.902 91.2787 190.251 91.6284 190.251 92.3279C191.301 93.0273 192.35 93.7268 193.049 93.7268C193.749 93.7268 194.098 93.377 194.798 93.377L210.536 83.5847C211.235 83.235 211.934 82.1858 211.934 81.1366C211.934 80.7869 211.934 80.4372 211.585 79.7377C210.885 79.0382 209.836 78.3388 208.787 78.3388C208.087 78.3388 207.738 78.6885 207.388 78.6885ZM212.634 75.541C214.033 73.4426 216.131 73.4426 217.18 75.541C218.579 76.5902 218.579 78.6885 217.53 79.7377C216.131 81.1366 214.383 81.1366 212.984 80.0874C211.585 78.6885 211.585 76.9399 212.634 75.541ZM55.9563 141.989C56.6557 141.29 56.6557 140.59 56.6557 139.891L56.306 121.005C56.306 119.257 54.9071 118.208 53.1585 118.208C51.4098 118.208 50.3607 119.607 50.3607 121.005L50.7104 136.743H43.7158L43.3661 123.803C43.3661 122.055 41.9672 120.656 40.2186 120.656C38.4699 120.656 37.4208 122.055 37.4208 124.503L37.7705 137.093H30.776L30.4262 121.705C30.4262 119.956 29.0273 118.907 27.6284 118.907C25.8798 118.907 24.8306 120.306 24.8306 121.705L25.1803 140.59C25.1803 141.989 26.5792 143.388 27.9781 143.388L53.8579 142.689C54.5574 142.689 55.6066 142.339 55.9563 141.989ZM223.126 163.672L199.694 151.432C197.945 150.732 196.546 151.082 195.497 152.481C194.798 154.23 195.497 156.328 196.896 157.027V157.377L205.989 161.574L200.393 172.765L191.65 167.869C189.902 167.169 187.803 167.869 187.104 169.268C186.404 170.667 186.754 172.765 188.153 173.814L211.585 185.355C212.984 186.055 214.732 185.355 215.432 183.956C216.131 182.208 215.781 180.459 214.383 179.76L205.639 175.563L211.235 164.372L219.978 168.918C221.727 169.617 223.475 168.918 224.175 167.519C224.874 166.12 224.525 164.372 223.126 163.672ZM218.929 91.6284L221.727 98.9727L198.995 104.918C197.945 105.268 196.896 107.016 196.896 108.066C196.896 108.415 196.896 108.765 197.246 109.115C197.596 110.164 198.645 110.863 200.393 110.863H201.093L223.126 104.568L225.224 111.913C225.574 112.962 226.623 114.011 228.022 114.011C228.022 114.011 228.372 114.011 228.721 113.661C230.12 113.311 231.169 112.262 231.169 111.213C231.169 110.863 231.169 110.514 230.82 110.164L225.224 89.8798C224.874 88.4809 223.825 87.7814 222.426 87.7814H221.727C219.978 88.1311 218.929 89.1803 218.929 90.929V91.6284ZM229.77 123.803L203.541 121.705C202.142 121.355 200.743 122.754 200.393 124.852L198.995 143.038C198.645 144.787 200.393 146.186 201.792 146.536C203.541 146.536 204.59 145.486 205.29 143.388L206.339 128.35L213.333 128.699L212.284 141.639C212.284 143.388 213.333 145.137 215.082 145.137C216.131 145.137 217.88 144.437 217.88 141.989L218.929 129.049L225.923 129.749L224.874 145.137C224.874 146.885 225.923 148.284 227.672 148.284C229.77 148.284 230.82 147.235 231.169 145.486L232.219 127.301C232.568 125.552 231.169 123.803 229.77 123.803ZM29.7268 109.115C30.776 109.115 31.8251 108.415 32.1749 107.016L34.9727 99.6721L56.306 107.366C58.0546 108.066 59.8033 107.016 60.5027 105.268C60.8525 103.519 60.153 101.77 58.4044 101.421L36.7213 94.0765L39.1694 87.082C39.5191 84.6339 38.1202 82.8852 36.3716 82.8852C35.3224 82.8852 33.9235 83.5847 33.224 84.6339L30.0765 95.1257L26.929 104.918C25.8798 107.016 27.9781 109.115 29.7268 109.115ZM169.967 69.5956C170.317 70.6448 171.716 71.3443 173.115 71.3443C173.464 71.3443 174.164 70.9945 174.514 70.9945L190.951 62.2514L182.557 79.0382C181.858 80.4372 182.557 82.1858 183.956 82.5355C185.355 83.235 187.104 82.8852 187.803 81.4863L200.393 56.306C200.743 54.2076 199.694 51.7596 197.246 51.7596C196.896 51.7596 196.546 51.7596 195.847 52.1093L171.366 65.7486C169.967 66.4481 169.617 67.1475 169.617 68.1967C169.617 68.8962 169.617 69.2459 169.967 69.5956ZM150.732 42.6667C152.131 39.8689 153.88 37.7705 156.328 36.7213C157.727 35.6721 159.126 35.3224 160.525 35.3224C161.574 35.3224 162.623 35.6721 163.672 36.3716C167.169 37.7705 169.268 41.6175 169.268 45.4645C169.268 46.8634 168.918 48.2623 168.568 49.3115C166.82 53.5082 163.322 56.306 159.475 56.306C158.426 56.306 157.377 56.306 156.678 55.9563C153.88 54.5574 152.131 52.8087 150.732 50.7104C150.383 49.3115 150.033 47.9126 150.033 46.5137C150.033 45.1148 150.383 43.7158 150.732 42.6667ZM154.23 61.5519C155.628 62.2514 157.727 62.6011 159.475 62.6011C165.77 62.6011 171.716 58.7541 174.514 51.4098C175.213 49.6612 175.563 47.5628 175.563 45.4645C175.563 38.8197 171.716 32.8743 165.77 30.776C164.022 30.0765 162.273 29.7268 160.175 29.7268C158.076 29.7268 155.628 30.4262 153.53 31.1257C149.683 32.8743 146.885 36.3716 145.486 40.2186C144.787 42.3169 144.437 44.4153 144.437 46.5137C144.437 48.612 144.787 50.7104 145.486 52.8087C147.235 56.6557 150.033 60.153 154.23 61.5519ZM65.7486 168.568L50.0109 176.612L54.2076 167.869C54.9071 166.47 54.2076 164.721 52.459 164.022C52.459 164.022 52.1093 163.672 51.7596 163.672L42.6667 161.574L58.4044 153.88C59.4536 153.53 59.8033 152.131 59.8033 151.082V149.683C59.1038 148.634 58.0546 148.284 56.6557 148.284C56.306 148.284 55.9563 148.284 55.6066 148.634L31.8251 160.175C30.776 160.874 30.4262 161.574 30.4262 162.623C30.4262 163.672 30.4262 164.022 30.776 164.372C31.1257 165.071 31.8251 165.77 32.5246 165.77L47.2131 168.568L40.5683 181.858C39.8689 183.956 40.2186 186.404 43.3661 186.404C43.7158 186.404 44.765 186.055 45.1148 186.055L68.1967 174.514C69.2459 174.164 69.9454 172.765 69.9454 171.366C69.9454 170.667 69.5956 170.317 69.5956 169.967C68.8962 168.918 67.847 168.568 66.7978 168.568H65.7486ZM48.612 70.6448L52.1093 65.7486C54.2076 62.2514 55.6066 61.5519 57.0055 61.5519C58.0546 61.5519 58.7541 62.2514 59.4536 62.6011C60.5027 63.3005 60.8525 64 60.8525 64.6995C61.2022 66.0984 60.8525 67.1475 59.8033 68.5464L55.2568 75.541L48.612 70.6448ZM42.6667 74.1421L64.6995 88.8306C66.0984 89.5301 67.847 89.1803 68.5464 88.1311C69.5956 86.7322 69.2459 84.6339 67.847 83.5847L60.153 78.6885L65.0492 71.694C66.4481 69.5956 67.1475 67.4973 67.1475 65.0492V64C66.7978 61.5519 65.3989 59.4536 62.6011 57.7049C61.2022 56.306 59.4536 55.2568 56.6557 55.2568C53.8579 55.2568 50.3607 57.0055 47.2131 61.9016L41.9672 69.9454C40.5683 70.9945 41.2678 72.7432 42.6667 74.1421ZM128 244.459C64 244.459 11.541 192 11.541 128C11.541 63.6503 64 11.541 128 11.541C192.35 11.541 244.459 63.6503 244.459 128C244.459 192 192.35 244.459 128 244.459ZM253.202 102.12C250.055 85.6831 243.41 69.9454 233.967 56.306C220.328 35.6721 200.743 19.5847 177.661 10.1421C169.617 6.29508 162.273 4.19672 153.88 2.44809C145.486 0.699454 136.393 0 128 0C119.257 0 110.514 0.699454 102.12 2.44809C85.6831 5.59563 69.9454 12.5902 56.306 21.6831C36.0219 35.3224 19.5847 54.9071 10.1421 78.3388C6.64481 86.0328 4.19672 93.7268 2.44809 101.77C0.699454 110.514 0 119.257 0 128C0 136.393 0.699454 145.486 2.44809 153.53C5.94536 169.967 12.5902 185.705 21.6831 199.344C35.6721 219.628 55.2568 236.066 78.3388 245.858C86.0328 249.005 94.0765 251.454 102.12 253.202C110.514 255.301 119.257 256 128 256C136.393 256 145.486 255.301 153.53 253.202C169.967 249.705 185.705 243.41 199.344 233.967C219.978 219.978 236.066 200.393 245.858 177.661C249.355 169.617 251.454 161.923 253.202 153.53C255.301 145.486 256 136.393 256 128C256 119.257 255.301 110.514 253.202 102.12ZM175.563 150.732C174.514 153.53 173.115 156.328 171.016 158.426H84.9836C83.5847 156.328 81.8361 153.53 80.7869 150.732C77.2896 143.038 75.541 134.995 75.541 126.601C75.541 105.268 91.6284 75.8907 128 75.8907H128.35C164.721 75.8907 181.158 105.268 181.158 126.601C181.158 134.995 179.06 143.038 175.563 150.732ZM186.404 105.268C183.607 97.9235 179.76 91.6284 174.863 85.6831C168.918 79.7377 162.623 74.8415 154.929 71.3443C146.885 67.847 137.792 66.0984 128.35 66.0984H128C118.208 66.0984 109.464 67.847 101.071 71.3443C94.0765 74.8415 87.082 79.7377 81.4863 85.6831C76.5902 91.6284 72.0437 97.9235 69.5956 105.268C67.1475 111.913 65.7486 118.907 65.7486 126.601C65.7486 151.082 78.6885 165.77 79.388 166.12L80.7869 167.869H175.563L176.962 166.12C177.661 165.77 190.951 151.082 190.951 126.601C190.951 118.907 189.202 111.913 186.404 105.268ZM149.683 88.1311L128 113.661L106.317 88.1311L89.1803 140.24H84.2842V148.984H116.809V140.24H112.962L115.41 129.399L128 141.29L140.94 129.399L143.738 140.24H139.191V148.984H172.066V140.24H166.47L149.683 88.1311Z" fill="#008BEF"/>
</svg>
